<svg width="36" height="48" viewBox="0 0 36 48" fill="none" xmlns="http://www.w3.org/2000/svg">
<path d="M17.4899 17.8828C13.9425 17.8828 11.0557 20.7687 11.0557 24.3161C11.0557 27.8634 13.9425 30.7493 17.4899 30.7493C21.0372 30.7493 23.9232 27.8634 23.9232 24.3161C23.9232 20.7687 21.0372 17.8828 17.4899 17.8828ZM17.4899 27.8901C15.5189 27.8901 13.9149 26.287 13.9149 24.3161C13.9149 22.3451 15.5189 20.742 17.4899 20.742C19.4599 20.742 21.0639 22.3451 21.0639 24.3161C21.0639 26.2869 19.4599 27.8901 17.4899 27.8901Z" fill="white"/>
<path d="M30.7749 16.9453C28.3702 16.9453 26.4136 18.902 26.4136 21.3076V24.1859C26.4136 29.0638 22.4459 33.0314 17.569 33.0314C12.6912 33.0314 8.72256 29.0638 8.72256 24.1859V21.3076C8.72256 18.9021 6.76589 16.9453 4.36033 16.9453C1.95571 16.9453 0 18.902 0 21.3076V24.1326C0 29.5479 2.51803 34.6745 6.77352 37.9941V46.5718C6.77352 47.3609 7.41303 48.0014 8.20313 48.0014H26.7681C27.5573 48.0014 28.1977 47.3609 28.1977 46.5718V38.077C32.5562 34.7203 35.1361 29.4984 35.1361 23.9581V21.3076C35.1361 18.9021 33.1804 16.9453 30.7749 16.9453ZM25.3385 37.3546V45.1422H9.63275V37.2774C9.63275 36.8161 9.40878 36.3825 9.03326 36.1137C5.16663 33.3545 2.85923 28.876 2.85923 24.1326V21.3076C2.85923 20.4785 3.5321 19.8045 4.36033 19.8045C5.1895 19.8045 5.86333 20.4784 5.86333 21.3076V24.1859C5.86333 30.6402 11.1138 35.8907 17.569 35.8907C24.0223 35.8907 29.2728 30.6402 29.2728 24.1859V21.3076C29.2728 20.4785 29.9466 19.8045 30.7758 19.8045C31.604 19.8045 32.2769 20.4784 32.2769 21.3076V23.9581C32.2769 28.8217 29.9095 33.3927 25.9447 36.1861C25.5644 36.4539 25.3385 36.8895 25.3385 37.3546Z" fill="white"/>
<path d="M11.9357 10.7347L11.7155 14.974C11.6623 16.0176 12.7094 16.7596 13.6712 16.376L17.5683 14.8272L21.4655 16.376C22.4289 16.7582 23.4744 16.0185 23.4212 14.974L23.201 10.7347L25.8315 7.53906C26.4864 6.74629 26.1108 5.53417 25.1148 5.25454L21.0499 4.1118L18.7616 0.641647C18.1984 -0.214216 16.9378 -0.213549 16.3751 0.641647L14.0868 4.1118L10.0219 5.25454C9.0243 5.53465 8.65145 6.74772 9.30517 7.53906L11.9357 10.7347ZM16.1807 6.13146L17.5683 4.02612L18.956 6.13146C19.1457 6.41834 19.4316 6.62802 19.7633 6.72047L22.2317 7.41431L20.6411 9.34619C20.4142 9.62163 20.2989 9.97141 20.317 10.3288L20.4504 12.8964L18.0963 11.9605C17.7589 11.8258 17.378 11.8257 17.0403 11.9605L14.6862 12.8964L14.8197 10.3288C14.8378 9.97141 14.7225 9.62163 14.4956 9.34619L12.9049 7.41431L15.3734 6.72047C15.7051 6.62802 15.991 6.41825 16.1807 6.13146Z" fill="white"/>
<path d="M6.57668 13.8596C7.135 14.4179 8.04013 14.4179 8.59845 13.8596C9.15676 13.3014 9.15676 12.3962 8.59845 11.8378L3.22223 6.46163C2.66402 5.90341 1.75879 5.90341 1.20047 6.46163C0.64216 7.01985 0.64216 7.92508 1.20047 8.48339L6.57668 13.8596Z" fill="white"/>
<path d="M28.8956 13.8596L34.2718 8.48339C34.8301 7.92518 34.8301 7.01994 34.2718 6.46163C33.7136 5.90341 32.8083 5.90341 32.25 6.46163L26.8738 11.8378C26.3155 12.3961 26.3155 13.3013 26.8738 13.8596C27.4321 14.4179 28.3373 14.4178 28.8956 13.8596Z" fill="white"/>
</svg>
