<svg width="15" height="19" viewBox="0 0 15 19" fill="none" xmlns="http://www.w3.org/2000/svg">
<path d="M7.41549 7.41667C9.25644 7.41667 10.7488 5.92428 10.7488 4.08333C10.7488 2.24238 9.25644 0.75 7.41549 0.75C5.57454 0.75 4.08215 2.24238 4.08215 4.08333C4.08215 5.92428 5.57454 7.41667 7.41549 7.41667Z" stroke="#84A17D" stroke-width="1.5"/>
<path d="M14.081 14.0846C14.0835 13.948 14.0835 13.8088 14.0835 13.668C14.0835 11.5971 11.0985 9.91797 7.41679 9.91797C3.73512 9.91797 0.750122 11.5971 0.750122 13.668C0.750122 15.7388 0.750122 17.418 7.41679 17.418C9.27596 17.418 10.6168 17.2871 11.5835 17.0538" stroke="#84A17D" stroke-width="1.5" stroke-linecap="round"/>
</svg>
