<svg width="60" height="38" viewBox="0 0 60 38" fill="none" xmlns="http://www.w3.org/2000/svg">
<path d="M1.37936 37.9997C0.765912 37.9997 0.214583 37.5968 0.0486593 36.9991C-0.135347 36.3345 0.216515 35.6387 0.867647 35.3829C5.19201 33.6812 8.36761 30.7642 10.3272 26.6987C4.32995 25.172 0.000207461 19.8083 0.000207461 13.5713C0.000207461 6.08783 6.19045 0 13.799 0C21.4076 0 27.5972 6.08783 27.5972 13.5713C27.6087 13.6741 28.8267 33.9078 1.58849 37.9845C1.51823 37.9951 1.44879 37.9997 1.37936 37.9997ZM13.799 2.71427C7.71261 2.71427 2.76141 7.58488 2.76141 13.5713C2.76141 19.0383 6.91999 23.6664 12.434 24.3356C12.8546 24.3873 13.2281 24.6252 13.4465 24.9817C13.6656 25.3382 13.706 25.7736 13.5557 26.1632C12.4482 29.0398 10.8721 31.4817 8.84177 33.4744C25.6801 27.6854 24.8516 13.8304 24.8401 13.672C24.836 7.58488 19.8848 2.71427 13.799 2.71427Z" fill="#153C3C"/>
<path d="M33.77 37.9997C33.1565 37.9997 32.6052 37.5968 32.4393 36.9991C32.2553 36.3345 32.6071 35.6387 33.2583 35.3829C37.5826 33.6812 40.7582 30.7642 42.7178 26.6987C36.7206 25.172 32.3908 19.8083 32.3908 13.5713C32.3908 6.08783 38.5811 0 46.1897 0C53.7983 0 59.9878 6.08783 59.9878 13.5713C59.9993 13.6741 61.2173 33.9078 33.9791 37.9845C33.9089 37.9951 33.8394 37.9997 33.77 37.9997ZM46.1897 2.71427C40.1032 2.71427 35.152 7.58488 35.152 13.5713C35.152 19.0383 39.3106 23.6664 44.8246 24.3356C45.2452 24.3873 45.6187 24.6252 45.8371 24.9817C46.0562 25.3382 46.0966 25.7736 45.9463 26.1632C44.8388 29.0398 43.2627 31.4817 41.2324 33.4744C58.0707 27.6854 57.2422 13.8304 57.2308 13.672C57.2266 7.58488 52.2754 2.71427 46.1897 2.71427Z" fill="#153C3C"/>
</svg>
