<svg width="306" height="112" viewBox="0 0 306 112" fill="none" xmlns="http://www.w3.org/2000/svg">
<rect width="306" height="112" rx="10" fill="#84A17D"/>
<path d="M38.052 49.756C38.268 46.66 39.276 43.996 41.076 41.764C42.876 39.496 45.252 37.75 48.204 36.526C51.192 35.302 54.576 34.69 58.356 34.69C61.956 34.69 65.106 35.248 67.806 36.364C70.506 37.444 72.612 38.974 74.124 40.954C75.636 42.934 76.392 45.238 76.392 47.866C76.392 49.882 75.87 51.754 74.826 53.482C73.782 55.21 72.108 56.956 69.804 58.72C67.536 60.448 64.512 62.32 60.732 64.336L48.474 71.086L47.772 68.602H77.526V76H38.646V69.52L55.98 59.368C58.86 57.712 61.11 56.29 62.73 55.102C64.35 53.878 65.502 52.744 66.186 51.7C66.87 50.656 67.212 49.54 67.212 48.352C67.212 47.092 66.87 45.976 66.186 45.004C65.502 44.032 64.476 43.276 63.108 42.736C61.776 42.196 60.084 41.926 58.032 41.926C55.62 41.926 53.64 42.286 52.092 43.006C50.544 43.69 49.374 44.626 48.582 45.814C47.826 47.002 47.376 48.316 47.232 49.756H38.052ZM86.5723 35.5H117.244V42.52H89.3803L93.1063 40.63L90.8383 56.452H88.4083C89.2363 55.156 90.3343 53.95 91.7023 52.834C93.1063 51.718 94.8163 50.818 96.8323 50.134C98.8483 49.45 101.17 49.108 103.798 49.108C107.29 49.108 110.278 49.702 112.762 50.89C115.246 52.042 117.136 53.644 118.432 55.696C119.764 57.712 120.43 60.016 120.43 62.608C120.43 65.38 119.656 67.828 118.108 69.952C116.56 72.076 114.364 73.75 111.52 74.974C108.676 76.198 105.292 76.81 101.368 76.81C97.4803 76.81 94.0963 76.252 91.2163 75.136C88.3363 73.984 86.0683 72.418 84.4123 70.438C82.7923 68.458 81.8383 66.262 81.5503 63.85H90.6763C91.1083 65.614 92.2423 67.018 94.0783 68.062C95.9143 69.07 98.3443 69.574 101.368 69.574C103.384 69.574 105.13 69.304 106.606 68.764C108.082 68.188 109.216 67.378 110.008 66.334C110.836 65.29 111.25 64.048 111.25 62.608C111.25 61.204 110.89 59.98 110.17 58.936C109.486 57.856 108.442 57.028 107.038 56.452C105.67 55.876 103.924 55.588 101.8 55.588C100.072 55.588 98.5063 55.786 97.1023 56.182C95.7343 56.578 94.5463 57.1 93.5383 57.748C92.5663 58.36 91.7383 59.008 91.0543 59.692H83.2243L86.5723 35.5ZM135.929 72.004V41.764H142.625V72.004H135.929ZM124.157 60.232V53.536H154.397V60.232H124.157Z" fill="white"/>
<path d="M174.383 50V44.645L170 37.04H172.196L175.337 42.485L178.478 37.04H180.674L176.291 44.645V50H174.383ZM184.8 50.27C183.834 50.27 182.985 50.06 182.253 49.64C181.527 49.214 180.96 48.623 180.552 47.867C180.15 47.105 179.949 46.223 179.949 45.221C179.949 44.159 180.147 43.238 180.543 42.458C180.945 41.678 181.503 41.075 182.217 40.649C182.931 40.223 183.762 40.01 184.71 40.01C185.7 40.01 186.543 40.241 187.239 40.703C187.935 41.159 188.454 41.81 188.796 42.656C189.144 43.502 189.282 44.507 189.21 45.671H187.329V44.987C187.317 43.859 187.101 43.025 186.681 42.485C186.267 41.945 185.634 41.675 184.782 41.675C183.84 41.675 183.132 41.972 182.658 42.566C182.184 43.16 181.947 44.018 181.947 45.14C181.947 46.208 182.184 47.036 182.658 47.624C183.132 48.206 183.816 48.497 184.71 48.497C185.298 48.497 185.805 48.365 186.231 48.101C186.663 47.831 186.999 47.447 187.239 46.949L189.084 47.534C188.706 48.404 188.133 49.079 187.365 49.559C186.597 50.033 185.742 50.27 184.8 50.27ZM181.335 45.671V44.204H188.274V45.671H181.335ZM193.798 50.27C193.078 50.27 192.475 50.138 191.989 49.874C191.503 49.604 191.134 49.25 190.882 48.812C190.636 48.368 190.513 47.882 190.513 47.354C190.513 46.862 190.6 46.43 190.774 46.058C190.948 45.686 191.206 45.371 191.548 45.113C191.89 44.849 192.31 44.636 192.808 44.474C193.24 44.348 193.729 44.237 194.275 44.141C194.821 44.045 195.394 43.955 195.994 43.871C196.6 43.787 197.2 43.703 197.794 43.619L197.11 43.997C197.122 43.235 196.96 42.671 196.624 42.305C196.294 41.933 195.724 41.747 194.914 41.747C194.404 41.747 193.936 41.867 193.51 42.107C193.084 42.341 192.787 42.731 192.619 43.277L190.864 42.737C191.104 41.903 191.56 41.24 192.232 40.748C192.91 40.256 193.81 40.01 194.932 40.01C195.802 40.01 196.558 40.16 197.2 40.46C197.848 40.754 198.322 41.222 198.622 41.864C198.778 42.182 198.874 42.518 198.91 42.872C198.946 43.226 198.964 43.607 198.964 44.015V50H197.299V47.777L197.623 48.065C197.221 48.809 196.708 49.364 196.084 49.73C195.466 50.09 194.704 50.27 193.798 50.27ZM194.131 48.731C194.665 48.731 195.124 48.638 195.508 48.452C195.892 48.26 196.201 48.017 196.435 47.723C196.669 47.429 196.822 47.123 196.894 46.805C196.996 46.517 197.053 46.193 197.065 45.833C197.083 45.473 197.092 45.185 197.092 44.969L197.704 45.194C197.11 45.284 196.57 45.365 196.084 45.437C195.598 45.509 195.157 45.581 194.761 45.653C194.371 45.719 194.023 45.8 193.717 45.896C193.459 45.986 193.228 46.094 193.024 46.22C192.826 46.346 192.667 46.499 192.547 46.679C192.433 46.859 192.376 47.078 192.376 47.336C192.376 47.588 192.439 47.822 192.565 48.038C192.691 48.248 192.883 48.416 193.141 48.542C193.399 48.668 193.729 48.731 194.131 48.731ZM201.301 50V40.28H202.975V42.638L202.741 42.332C202.861 42.02 203.017 41.735 203.209 41.477C203.401 41.213 203.623 40.997 203.875 40.829C204.121 40.649 204.394 40.511 204.694 40.415C205 40.313 205.312 40.253 205.63 40.235C205.948 40.211 206.254 40.226 206.548 40.28V42.044C206.23 41.96 205.876 41.936 205.486 41.972C205.102 42.008 204.748 42.131 204.424 42.341C204.118 42.539 203.875 42.779 203.695 43.061C203.521 43.343 203.395 43.658 203.317 44.006C203.239 44.348 203.2 44.711 203.2 45.095V50H201.301ZM211.627 50.261C210.445 50.261 209.482 50 208.738 49.478C207.994 48.956 207.538 48.221 207.37 47.273L209.296 46.976C209.416 47.48 209.692 47.879 210.124 48.173C210.562 48.461 211.105 48.605 211.753 48.605C212.341 48.605 212.8 48.485 213.13 48.245C213.466 48.005 213.634 47.675 213.634 47.255C213.634 47.009 213.574 46.811 213.454 46.661C213.34 46.505 213.097 46.358 212.725 46.22C212.353 46.082 211.786 45.911 211.024 45.707C210.19 45.491 209.527 45.26 209.035 45.014C208.549 44.762 208.201 44.471 207.991 44.141C207.787 43.805 207.685 43.4 207.685 42.926C207.685 42.338 207.841 41.825 208.153 41.387C208.465 40.949 208.903 40.61 209.467 40.37C210.037 40.13 210.703 40.01 211.465 40.01C212.209 40.01 212.872 40.127 213.454 40.361C214.036 40.595 214.507 40.928 214.867 41.36C215.227 41.786 215.443 42.287 215.515 42.863L213.589 43.214C213.523 42.746 213.304 42.377 212.932 42.107C212.56 41.837 212.077 41.69 211.483 41.666C210.913 41.642 210.451 41.738 210.097 41.954C209.743 42.164 209.566 42.455 209.566 42.827C209.566 43.043 209.632 43.226 209.764 43.376C209.902 43.526 210.166 43.67 210.556 43.808C210.946 43.946 211.522 44.111 212.284 44.303C213.1 44.513 213.748 44.747 214.228 45.005C214.708 45.257 215.05 45.56 215.254 45.914C215.464 46.262 215.569 46.685 215.569 47.183C215.569 48.143 215.218 48.896 214.516 49.442C213.82 49.988 212.857 50.261 211.627 50.261ZM225.385 50.27C224.413 50.27 223.57 50.051 222.856 49.613C222.142 49.175 221.59 48.572 221.2 47.804C220.816 47.03 220.624 46.139 220.624 45.131C220.624 44.117 220.822 43.226 221.218 42.458C221.614 41.684 222.169 41.084 222.883 40.658C223.597 40.226 224.431 40.01 225.385 40.01C226.357 40.01 227.2 40.229 227.914 40.667C228.628 41.105 229.18 41.708 229.57 42.476C229.96 43.244 230.155 44.129 230.155 45.131C230.155 46.145 229.957 47.039 229.561 47.813C229.171 48.581 228.619 49.184 227.905 49.622C227.191 50.054 226.351 50.27 225.385 50.27ZM225.385 48.497C226.315 48.497 227.008 48.185 227.464 47.561C227.926 46.931 228.157 46.121 228.157 45.131C228.157 44.117 227.923 43.307 227.455 42.701C226.993 42.089 226.303 41.783 225.385 41.783C224.755 41.783 224.236 41.927 223.828 42.215C223.42 42.497 223.117 42.89 222.919 43.394C222.721 43.892 222.622 44.471 222.622 45.131C222.622 46.151 222.856 46.967 223.324 47.579C223.792 48.191 224.479 48.497 225.385 48.497ZM233.024 50V39.938C233.024 39.692 233.033 39.431 233.051 39.155C233.069 38.873 233.12 38.597 233.204 38.327C233.294 38.051 233.441 37.799 233.645 37.571C233.891 37.301 234.161 37.109 234.455 36.995C234.749 36.881 235.04 36.815 235.328 36.797C235.622 36.779 235.892 36.77 236.138 36.77H237.362V38.318H236.228C235.784 38.318 235.451 38.429 235.229 38.651C235.013 38.867 234.905 39.176 234.905 39.578V50H233.024ZM231.413 41.792V40.28H237.362V41.792H231.413ZM171.26 75V62.04H179.54V63.813H173.141V67.449H178.46V69.222H173.141V73.227H179.54V75H171.26ZM180.621 75L184.257 70.086L180.702 65.28H182.934L185.355 68.619L187.749 65.28H189.981L186.426 70.086L190.071 75H187.83L185.355 71.553L182.862 75H180.621ZM196.073 75.27C195.143 75.27 194.363 75.045 193.733 74.595C193.103 74.139 192.626 73.524 192.302 72.75C191.978 71.976 191.816 71.103 191.816 70.131C191.816 69.159 191.975 68.286 192.293 67.512C192.617 66.738 193.091 66.129 193.715 65.685C194.345 65.235 195.119 65.01 196.037 65.01C196.949 65.01 197.735 65.235 198.395 65.685C199.061 66.129 199.574 66.738 199.934 67.512C200.294 68.28 200.474 69.153 200.474 70.131C200.474 71.103 200.294 71.979 199.934 72.759C199.58 73.533 199.073 74.145 198.413 74.595C197.759 75.045 196.979 75.27 196.073 75.27ZM191.501 79.32V65.28H193.175V72.273H193.391V79.32H191.501ZM195.812 73.569C196.412 73.569 196.907 73.416 197.297 73.11C197.693 72.804 197.987 72.393 198.179 71.877C198.377 71.355 198.476 70.773 198.476 70.131C198.476 69.495 198.377 68.919 198.179 68.403C197.987 67.887 197.69 67.476 197.288 67.17C196.886 66.864 196.373 66.711 195.749 66.711C195.161 66.711 194.675 66.855 194.291 67.143C193.913 67.431 193.631 67.833 193.445 68.349C193.265 68.865 193.175 69.459 193.175 70.131C193.175 70.803 193.265 71.397 193.445 71.913C193.625 72.429 193.91 72.834 194.3 73.128C194.69 73.422 195.194 73.569 195.812 73.569ZM206.772 75.27C205.806 75.27 204.957 75.06 204.225 74.64C203.499 74.214 202.932 73.623 202.524 72.867C202.122 72.105 201.921 71.223 201.921 70.221C201.921 69.159 202.119 68.238 202.515 67.458C202.917 66.678 203.475 66.075 204.189 65.649C204.903 65.223 205.734 65.01 206.682 65.01C207.672 65.01 208.515 65.241 209.211 65.703C209.907 66.159 210.426 66.81 210.768 67.656C211.116 68.502 211.254 69.507 211.182 70.671H209.301V69.987C209.289 68.859 209.073 68.025 208.653 67.485C208.239 66.945 207.606 66.675 206.754 66.675C205.812 66.675 205.104 66.972 204.63 67.566C204.156 68.16 203.919 69.018 203.919 70.14C203.919 71.208 204.156 72.036 204.63 72.624C205.104 73.206 205.788 73.497 206.682 73.497C207.27 73.497 207.777 73.365 208.203 73.101C208.635 72.831 208.971 72.447 209.211 71.949L211.056 72.534C210.678 73.404 210.105 74.079 209.337 74.559C208.569 75.033 207.714 75.27 206.772 75.27ZM203.307 70.671V69.204H210.246V70.671H203.307ZM213.201 75V65.28H214.875V67.638L214.641 67.332C214.761 67.02 214.917 66.735 215.109 66.477C215.301 66.213 215.523 65.997 215.775 65.829C216.021 65.649 216.294 65.511 216.594 65.415C216.9 65.313 217.212 65.253 217.53 65.235C217.848 65.211 218.154 65.226 218.448 65.28V67.044C218.13 66.96 217.776 66.936 217.386 66.972C217.002 67.008 216.648 67.131 216.324 67.341C216.018 67.539 215.775 67.779 215.595 68.061C215.421 68.343 215.295 68.658 215.217 69.006C215.139 69.348 215.1 69.711 215.1 70.095V75H213.201ZM220.342 63.687V61.86H222.223V63.687H220.342ZM220.342 75V65.28H222.223V75H220.342ZM229.237 75.27C228.271 75.27 227.422 75.06 226.69 74.64C225.964 74.214 225.397 73.623 224.989 72.867C224.587 72.105 224.386 71.223 224.386 70.221C224.386 69.159 224.584 68.238 224.98 67.458C225.382 66.678 225.94 66.075 226.654 65.649C227.368 65.223 228.199 65.01 229.147 65.01C230.137 65.01 230.98 65.241 231.676 65.703C232.372 66.159 232.891 66.81 233.233 67.656C233.581 68.502 233.719 69.507 233.647 70.671H231.766V69.987C231.754 68.859 231.538 68.025 231.118 67.485C230.704 66.945 230.071 66.675 229.219 66.675C228.277 66.675 227.569 66.972 227.095 67.566C226.621 68.16 226.384 69.018 226.384 70.14C226.384 71.208 226.621 72.036 227.095 72.624C227.569 73.206 228.253 73.497 229.147 73.497C229.735 73.497 230.242 73.365 230.668 73.101C231.1 72.831 231.436 72.447 231.676 71.949L233.521 72.534C233.143 73.404 232.57 74.079 231.802 74.559C231.034 75.033 230.179 75.27 229.237 75.27ZM225.772 70.671V69.204H232.711V70.671H225.772ZM242.225 75V70.221C242.225 69.843 242.192 69.456 242.126 69.06C242.066 68.658 241.946 68.286 241.766 67.944C241.592 67.602 241.343 67.326 241.019 67.116C240.701 66.906 240.284 66.801 239.768 66.801C239.432 66.801 239.114 66.858 238.814 66.972C238.514 67.08 238.25 67.257 238.022 67.503C237.8 67.749 237.623 68.073 237.491 68.475C237.365 68.877 237.302 69.366 237.302 69.942L236.132 69.501C236.132 68.619 236.297 67.842 236.627 67.17C236.957 66.492 237.431 65.964 238.049 65.586C238.667 65.208 239.414 65.019 240.29 65.019C240.962 65.019 241.526 65.127 241.982 65.343C242.438 65.559 242.807 65.844 243.089 66.198C243.377 66.546 243.596 66.927 243.746 67.341C243.896 67.755 243.998 68.16 244.052 68.556C244.106 68.952 244.133 69.3 244.133 69.6V75H242.225ZM235.394 75V65.28H237.077V68.088H237.302V75H235.394ZM250.512 75.27C249.516 75.27 248.67 75.048 247.974 74.604C247.278 74.16 246.744 73.551 246.372 72.777C246.006 72.003 245.82 71.124 245.814 70.14C245.82 69.138 246.012 68.253 246.39 67.485C246.768 66.711 247.308 66.105 248.01 65.667C248.712 65.229 249.555 65.01 250.539 65.01C251.601 65.01 252.507 65.274 253.257 65.802C254.013 66.33 254.511 67.053 254.751 67.971L252.879 68.511C252.693 67.965 252.387 67.542 251.961 67.242C251.541 66.936 251.058 66.783 250.512 66.783C249.894 66.783 249.387 66.93 248.991 67.224C248.595 67.512 248.301 67.908 248.109 68.412C247.917 68.916 247.818 69.492 247.812 70.14C247.818 71.142 248.046 71.952 248.496 72.57C248.952 73.188 249.624 73.497 250.512 73.497C251.118 73.497 251.607 73.359 251.979 73.083C252.357 72.801 252.645 72.399 252.843 71.877L254.751 72.327C254.433 73.275 253.908 74.004 253.176 74.514C252.444 75.018 251.556 75.27 250.512 75.27ZM260.632 75.27C259.666 75.27 258.817 75.06 258.085 74.64C257.359 74.214 256.792 73.623 256.384 72.867C255.982 72.105 255.781 71.223 255.781 70.221C255.781 69.159 255.979 68.238 256.375 67.458C256.777 66.678 257.335 66.075 258.049 65.649C258.763 65.223 259.594 65.01 260.542 65.01C261.532 65.01 262.375 65.241 263.071 65.703C263.767 66.159 264.286 66.81 264.628 67.656C264.976 68.502 265.114 69.507 265.042 70.671H263.161V69.987C263.149 68.859 262.933 68.025 262.513 67.485C262.099 66.945 261.466 66.675 260.614 66.675C259.672 66.675 258.964 66.972 258.49 67.566C258.016 68.16 257.779 69.018 257.779 70.14C257.779 71.208 258.016 72.036 258.49 72.624C258.964 73.206 259.648 73.497 260.542 73.497C261.13 73.497 261.637 73.365 262.063 73.101C262.495 72.831 262.831 72.447 263.071 71.949L264.916 72.534C264.538 73.404 263.965 74.079 263.197 74.559C262.429 75.033 261.574 75.27 260.632 75.27ZM257.167 70.671V69.204H264.106V70.671H257.167Z" fill="white"/>
</svg>
