<svg width="64" height="64" viewBox="0 0 64 64" fill="none" xmlns="http://www.w3.org/2000/svg">
<path d="M49 54.2852C57.2727 54.2852 64 47.556 64 39.2852C64 31.7339 58.3933 25.468 51.1204 24.4353C51.7026 20.2055 53.3176 16.1809 55.8409 12.6909C56.3316 12.0098 56.3133 11.0869 55.7896 10.4278C55.2759 9.77916 54.3831 9.53329 53.5996 9.86379C41.6941 14.8332 34 26.3835 34 39.2852C34 47.556 40.7272 54.2852 49 54.2852ZM15 54.2852C23.2728 54.2852 30 47.556 30 39.2852C30 31.7339 24.3933 25.468 17.1204 24.4353C17.7026 20.2055 19.3176 16.1809 21.8409 12.6909C22.3316 12.0098 22.3133 11.0869 21.7896 10.4278C21.2759 9.77916 20.3831 9.53329 19.5996 9.86379C7.69413 14.8332 2.43924e-06 26.3835 1.31134e-06 39.2852C5.88279e-07 47.556 6.72725 54.2852 15 54.2852Z" fill="#84A17D"/>
</svg>
