<svg width="40" height="40" viewBox="0 0 40 40" fill="none" xmlns="http://www.w3.org/2000/svg">
<g clip-path="url(#clip0_6335_237)">
<path d="M36.484 2.34375H21.1718V1.17187C21.1718 0.524596 20.6469 0 20 0C19.3527 0 18.8281 0.524596 18.8281 1.17187V2.34375H3.51562C1.57715 2.34375 0 3.92089 0 5.85936C0 7.38707 0.979918 8.68956 2.34375 9.17326V29.3746C2.34375 30.0219 2.86834 30.5465 3.51562 30.5465H18.8281V35.6393L12.5979 37.716C11.9839 37.9208 11.6522 38.5845 11.857 39.1982C12.0614 39.8122 12.7249 40.1443 13.3392 39.9395L19.9997 37.7194L26.6604 39.9395C27.2732 40.144 27.9376 39.8135 28.1427 39.1982C28.3474 38.5845 28.0157 37.9208 27.4017 37.716L21.1718 35.6393V30.5465H36.484C37.1313 30.5465 37.6559 30.0219 37.6559 29.3746V9.17326C39.02 8.68956 39.9996 7.38707 39.9996 5.85936C39.9996 3.92089 38.4228 2.34375 36.484 2.34375ZM4.68749 28.2028V9.37498H35.3121V28.2028H4.68749ZM36.484 7.03124H3.51562C2.86956 7.03124 2.34375 6.50542 2.34375 5.85936C2.34375 5.213 2.86956 4.68749 3.51562 4.68749H36.484C37.1304 4.68749 37.6559 5.213 37.6559 5.85936C37.6559 6.50542 37.1304 7.03124 36.484 7.03124Z" fill="#172426"/>
<path d="M24.6872 23.5153H23.5156V15.2344C23.5156 14.5871 22.9907 14.0625 22.3437 14.0625C21.6964 14.0625 21.1719 14.5871 21.1719 15.2344V23.5153H18.8281V17.5781C18.8281 16.9308 18.3032 16.4062 17.6562 16.4062C17.009 16.4062 16.4844 16.9308 16.4844 17.5781V23.5153H14.1406V19.9216C14.1406 19.2746 13.6157 18.75 12.9687 18.75C12.3215 18.75 11.7969 19.2746 11.7969 19.9216V23.5153H9.45312V12.8906C9.45312 12.2433 8.92852 11.7188 8.28125 11.7188C7.63397 11.7188 7.10938 12.2433 7.10938 12.8906V24.6872C7.10938 25.3344 7.63397 25.859 8.28125 25.859H24.6872C25.3344 25.859 25.859 25.3344 25.859 24.6872C25.859 24.0402 25.3344 23.5153 24.6872 23.5153Z" fill="#172426"/>
<path d="M31.7966 11.7188H27.031C26.384 11.7188 25.8591 12.2433 25.8591 12.8906C25.8591 13.5376 26.384 14.0625 27.031 14.0625H31.7966C32.4439 14.0625 32.9685 13.5376 32.9685 12.8906C32.9685 12.2433 32.4439 11.7188 31.7966 11.7188Z" fill="#172426"/>
<path d="M31.7966 16.4062H27.031C26.384 16.4062 25.8591 16.9308 25.8591 17.5781C25.8591 18.2251 26.384 18.75 27.031 18.75H31.7966C32.4439 18.75 32.9685 18.2251 32.9685 17.5781C32.9685 16.9308 32.4439 16.4062 31.7966 16.4062Z" fill="#172426"/>
</g>
<defs>
<clipPath id="clip0_6335_237">
<rect width="40" height="40" fill="white"/>
</clipPath>
</defs>
</svg>
