<svg width="64" height="45" viewBox="0 0 64 45" fill="none" xmlns="http://www.w3.org/2000/svg">
<path d="M15 0C6.72725 0 0 6.72912 0 15C0 22.5512 5.60675 28.8171 12.8796 29.8499C12.2974 34.0796 10.6824 38.1042 8.15913 41.5942C7.66838 42.2754 7.68675 43.1982 8.21037 43.8574C8.72412 44.506 9.61688 44.7519 10.4004 44.4214C22.3059 39.452 30 27.9016 30 15C30 6.72912 23.2728 0 15 0ZM49 0C40.7272 0 34 6.72912 34 15C34 22.5512 39.6068 28.8171 46.8796 29.8499C46.2974 34.0796 44.6824 38.1042 42.1591 41.5942C41.6684 42.2754 41.6868 43.1982 42.2104 43.8574C42.7241 44.506 43.6169 44.7519 44.4004 44.4214C56.3059 39.452 64 27.9016 64 15C64 6.72912 57.2728 0 49 0Z" fill="white"/>
</svg>
